<?xml version="1.0" encoding="utf-8"?>
<!-- Generator: Adobe Illustrator 23.0.4, SVG Export Plug-In . SVG Version: 6.00 Build 0)  -->
<svg version="1.1" id="Ebene_1" xmlns="http://www.w3.org/2000/svg" xmlns:xlink="http://www.w3.org/1999/xlink" x="0px" y="0px"
	 viewBox="0 0 32 32" enable-background="new 0 0 32 32" xml:space="preserve">
<g>
	<path d="M16.5,4c4.94,0,7.99,2.23,7.99,6.1c0,2.85-1.27,4.63-3.84,5.35c3.02,0.51,5.21,2.19,5.21,5.76c0,4.56-3.19,6.79-8.43,6.79
		H6.14V4H16.5z M12.93,13.26c2.6,0,5.72,0.21,5.72-2.19c0-1.92-2.33-2.06-5.01-2.06h-1.68v4.25H12.93z M14.41,23.03
		c2.85,0,5.52,0.07,5.52-2.33c0-2.98-3.6-2.64-6.58-2.64h-1.37v4.97H14.41z"/>
</g>
</svg>
