<?xml version="1.0" encoding="utf-8"?>
<!-- Generator: Adobe Illustrator 23.0.4, SVG Export Plug-In . SVG Version: 6.00 Build 0)  -->
<svg version="1.1" id="Ebene_1" xmlns="http://www.w3.org/2000/svg" xmlns:xlink="http://www.w3.org/1999/xlink" x="0px" y="0px"
	 viewBox="0 0 32 32" enable-background="new 0 0 32 32" xml:space="preserve">
<g>
	<circle cx="7.98" cy="16" r="3.08"/>
	<circle cx="4.5" cy="8.73" r="3.08"/>
	<circle cx="11.46" cy="23.27" r="3.08"/>
	<g>
		<path d="M30.09,22.56h-11.6c-0.27,0-0.48-0.22-0.48-0.48v-0.71c0-0.27,0.22-0.48,0.48-0.48h11.6c0.27,0,0.48,0.22,0.48,0.48v0.71
			C30.57,22.34,30.35,22.56,30.09,22.56z"/>
		<path d="M30.09,25.66h-11.6c-0.27,0-0.48-0.22-0.48-0.48v-0.71c0-0.27,0.22-0.48,0.48-0.48h11.6c0.27,0,0.48,0.22,0.48,0.48v0.71
			C30.57,25.44,30.35,25.66,30.09,25.66z"/>
	</g>
	<g>
		<path d="M26.61,15.29h-11.6c-0.27,0-0.48-0.22-0.48-0.48v-0.71c0-0.27,0.22-0.48,0.48-0.48h11.6c0.27,0,0.48,0.22,0.48,0.48v0.71
			C27.1,15.07,26.88,15.29,26.61,15.29z"/>
		<path d="M26.61,18.39h-11.6c-0.27,0-0.48-0.22-0.48-0.48v-0.71c0-0.27,0.22-0.48,0.48-0.48h11.6c0.27,0,0.48,0.22,0.48,0.48v0.71
			C27.1,18.17,26.88,18.39,26.61,18.39z"/>
	</g>
	<g>
		<path d="M23.14,8.02h-11.6c-0.27,0-0.48-0.22-0.48-0.48V6.82c0-0.27,0.22-0.48,0.48-0.48h11.6c0.27,0,0.48,0.22,0.48,0.48l0,0.71
			C23.62,7.8,23.4,8.02,23.14,8.02z"/>
		<path d="M23.14,11.12h-11.6c-0.27,0-0.48-0.22-0.48-0.48V9.92c0-0.27,0.22-0.48,0.48-0.48l11.6,0c0.27,0,0.48,0.22,0.48,0.48v0.71
			C23.62,10.91,23.4,11.12,23.14,11.12z"/>
	</g>
</g>
</svg>
