<?xml version="1.0" encoding="utf-8"?>
<!-- Generator: Adobe Illustrator 23.0.4, SVG Export Plug-In . SVG Version: 6.00 Build 0)  -->
<svg version="1.1" id="Ebene_1" xmlns="http://www.w3.org/2000/svg" xmlns:xlink="http://www.w3.org/1999/xlink" x="0px" y="0px"
	 viewBox="0 0 32 32" enable-background="new 0 0 32 32" xml:space="preserve">
<g>
	<path d="M15.67,24.67h-4.12v-6.79H4.75v6.79H0.63V7.69h4.12v6.57h6.79V7.69h4.12V24.67z"/>
	<path d="M18.96,9.71c2.47-1.75,3.86-2.38,6.31-2.38c3.4,0,5.73,1.89,6.06,4.73c0.34,2.86-1.6,5.07-2.91,6.02
		c-1.8,1.27-3.46,1.67-4.43,2.72h6.97v3.88H18.89c0-5.75,3.74-7.88,5.6-8.93c1.33-0.7,1.92-1.07,2.33-1.7
		c0.73-1.16,0.27-2.84-1.7-2.84c-0.9,0-2.69,0.44-4.39,1.92L18.96,9.71z"/>
</g>
</svg>
