<?xml version="1.0" encoding="utf-8"?>
<!-- Generator: Adobe Illustrator 23.0.4, SVG Export Plug-In . SVG Version: 6.00 Build 0)  -->
<svg version="1.1" id="Ebene_1" xmlns="http://www.w3.org/2000/svg" xmlns:xlink="http://www.w3.org/1999/xlink" x="0px" y="0px"
	 viewBox="0 0 32 32" enable-background="new 0 0 32 32" xml:space="preserve">
<g>
	<path d="M15.76,24.31h-4.12v-6.79H4.84v6.79H0.72V7.33h4.12v6.57h6.79V7.33h4.12V24.31z"/>
	<path d="M23.86,13.15c3.52-0.34,7.42,0.95,7.42,5.36c0,4.25-3.64,6.16-6.87,6.16c-2.11,0-4.2-0.53-5.75-1.58l1.43-3.64
		c0.99,0.65,2.13,1.02,3.37,1.21c2.23,0.34,3.57-0.58,3.57-2.33c0-1.7-1.55-2.28-3.64-2.28c-1.07,0-2.43,0.22-3.66,0.58V7.33H30.6
		v3.64h-6.74V13.15z"/>
</g>
</svg>
