<?xml version="1.0" encoding="utf-8"?>
<!-- Generator: Adobe Illustrator 23.0.4, SVG Export Plug-In . SVG Version: 6.00 Build 0)  -->
<svg version="1.1" id="Ebene_1" xmlns="http://www.w3.org/2000/svg" xmlns:xlink="http://www.w3.org/1999/xlink" x="0px" y="0px"
	 viewBox="0 0 32 32" enable-background="new 0 0 32 32" xml:space="preserve">
<g>
	<path d="M15.36,24.32h-4.03v-6.64H4.68v6.64H0.65V7.71h4.03v6.43h6.64V7.71h4.03V24.32z"/>
	<path d="M28.74,12.38c-0.78-1.12-1.66-1.59-2.82-1.59c-1.31,0-2.33,0.76-2.92,2.25c-0.15,0.36-0.26,0.8-0.34,1.27
		c0.9-0.71,1.97-1.01,3.21-1.01c3.56,0,5.48,2.47,5.48,5.55c0,3.51-2.94,5.81-6.05,5.81c-4.34,0-6.6-2.89-6.6-8.19
		c0-5.81,3.06-9.16,7.09-9.16c2.11,0,3.7,0.71,5.2,2.42L28.74,12.38z M27.27,18.48c0-1.45-0.66-2.42-2.09-2.42
		c-1.3,0-2.24,0.69-2.63,1.65c0.2,2.4,1.36,3.65,2.96,3.38C26.44,20.92,27.27,20.12,27.27,18.48z"/>
</g>
</svg>
