<?xml version="1.0" encoding="utf-8"?>
<!-- Generator: Adobe Illustrator 23.0.4, SVG Export Plug-In . SVG Version: 6.00 Build 0)  -->
<svg version="1.1" id="Ebene_1" xmlns="http://www.w3.org/2000/svg" xmlns:xlink="http://www.w3.org/1999/xlink" x="0px" y="0px"
	 viewBox="0 0 32 32" enable-background="new 0 0 32 32" xml:space="preserve">
<g>
	<path d="M20.68,17.53l0.01-2.89c0-0.77-0.15-1.47-0.42-2.15c-0.81-1.95-2.72-3.33-4.93-3.39l-0.01,2.89
		c0.52,0.02,1.02,0.21,1.4,0.5c0.65,0.48,1.12,1.27,1.1,2.15l-0.01,2.89c0,0.86-0.44,1.65-1.12,2.14c-0.43,0.34-1,0.54-1.58,0.54
		l-9.04-0.04c-1.45-0.01-2.66-1.23-2.66-2.68l0.01-2.89c0.01-1.45,1.21-2.64,2.68-2.66l2.03,0.01L8.12,9.05L6.09,9.04
		c-3.03-0.01-5.55,2.49-5.56,5.51l-0.01,2.89C0.51,20.52,2.99,23.02,6.04,23l9.04,0.04c2.3,0.01,4.3-1.38,5.14-3.39
		C20.49,19.02,20.67,18.29,20.68,17.53z M30.41,12.01l0.01-2.89c0.01-3.07-2.46-5.57-5.54-5.58L15.85,3.5
		c-2.3-0.01-4.3,1.38-5.14,3.39c-0.27,0.68-0.43,1.38-0.44,2.14l-0.01,2.89c0,0.77,0.15,1.51,0.42,2.15
		c0.81,1.95,2.72,3.33,4.93,3.39l0.01-2.89c-0.52-0.02-0.99-0.18-1.4-0.5c-0.65-0.48-1.1-1.29-1.1-2.15l0.01-2.89
		c0-0.9,0.44-1.65,1.12-2.14c0.45-0.36,1-0.54,1.58-0.54l9.04,0.04c1.45,0.01,2.68,1.21,2.66,2.68l-0.01,2.89
		c-0.01,1.49-1.23,2.66-2.68,2.66l-2.03-0.01l-0.01,2.89l2.03,0.01C27.91,17.56,30.4,15.08,30.41,12.01z"/>
	<polygon points="26.71,19.44 28.19,22.42 31.48,22.9 29.1,25.22 29.66,28.5 26.71,26.95 23.77,28.5 24.33,25.22 21.95,22.9 
		25.24,22.42 	"/>
</g>
</svg>
