<?xml version="1.0" encoding="utf-8"?>
<!-- Generator: Adobe Illustrator 23.0.4, SVG Export Plug-In . SVG Version: 6.00 Build 0)  -->
<svg version="1.1" id="Ebene_1" xmlns="http://www.w3.org/2000/svg" xmlns:xlink="http://www.w3.org/1999/xlink" x="0px" y="0px"
	 viewBox="0 0 32 32" enable-background="new 0 0 32 32" xml:space="preserve">
<g>
	<g>
		<g>
			<path d="M4.13,17.71H1.09l1.57-8.94L0.99,9.23l-0.36-2.4l5.7-1.55L4.13,17.71z"/>
		</g>
		<g>
			<path d="M7.8,15.99c1.98-1.25,3.06-1.7,4.81-1.7c2.43,0,3.86,1.36,3.75,3.39c-0.12,2.05-1.79,3.63-2.85,4.31
				c-1.46,0.91-2.7,1.2-3.52,1.95h5l-0.49,2.78H5.85c0.73-4.12,3.67-5.65,5.14-6.39c1.04-0.5,1.51-0.76,1.88-1.22
				c0.68-0.83,0.56-2.03-0.85-2.03c-0.64,0-1.98,0.31-3.39,1.37L7.8,15.99z"/>
		</g>
	</g>
	<path d="M20.78,8.4H9.16c-0.27,0-0.48-0.22-0.48-0.48V7.2c0-0.27,0.22-0.48,0.48-0.48h11.63c0.27,0,0.48,0.22,0.48,0.48v0.71
		C21.27,8.18,21.05,8.4,20.78,8.4z"/>
	<path d="M20.78,11.5H9.16c-0.27,0-0.48-0.22-0.48-0.48V10.3c0-0.27,0.22-0.48,0.48-0.48h11.63c0.27,0,0.48,0.22,0.48,0.48v0.71
		C21.27,11.28,21.05,11.5,20.78,11.5z"/>
	<g>
		<path d="M30.89,19.79h-11.6c-0.27,0-0.48-0.22-0.48-0.48v-0.71c0-0.27,0.22-0.48,0.48-0.48h11.6c0.27,0,0.48,0.22,0.48,0.48v0.71
			C31.38,19.57,31.16,19.79,30.89,19.79z"/>
		<path d="M30.89,22.9h-11.6c-0.27,0-0.48-0.22-0.48-0.48V21.7c0-0.27,0.22-0.48,0.48-0.48h11.6c0.27,0,0.48,0.22,0.48,0.48v0.71
			C31.38,22.68,31.16,22.9,30.89,22.9z"/>
	</g>
</g>
</svg>
