<?xml version="1.0" encoding="utf-8"?>
<!-- Generator: Adobe Illustrator 23.0.4, SVG Export Plug-In . SVG Version: 6.00 Build 0)  -->
<svg version="1.1" id="Ebene_1" xmlns="http://www.w3.org/2000/svg" xmlns:xlink="http://www.w3.org/1999/xlink" x="0px" y="0px"
	 viewBox="0 0 32 32" enable-background="new 0 0 32 32" xml:space="preserve">
<path d="M27.26,3.99h-7.51h-7.51H4.74c-0.42,0-0.75,0.33-0.75,0.75v7.51v7.51v7.51c0,0.42,0.33,0.75,0.75,0.75h7.51h7.51h7.51
	c0.42,0,0.75-0.33,0.75-0.75v-7.51v-7.51V4.74C28.01,4.32,27.68,3.99,27.26,3.99z M11.49,26.51H5.49v-6.01h6.01V26.51z M11.49,19
	H5.49V13h6.01V19z M11.49,11.49H5.49V5.49h6.01V11.49z M19,26.51H13v-6.01H19V26.51z M19,19H13V13H19V19z M19,11.49H13V5.49H19
	V11.49z M26.51,26.51h-6.01v-6.01h6.01V26.51z M26.51,19h-6.01V13h6.01V19z M26.51,11.49h-6.01V5.49h6.01V11.49z"/>
</svg>
