<?xml version="1.0" encoding="utf-8"?>
<!-- Generator: Adobe Illustrator 23.0.4, SVG Export Plug-In . SVG Version: 6.00 Build 0)  -->
<svg version="1.1" id="Ebene_1" xmlns="http://www.w3.org/2000/svg" xmlns:xlink="http://www.w3.org/1999/xlink" x="0px" y="0px"
	 viewBox="0 0 32 32" enable-background="new 0 0 32 32" xml:space="preserve">
<g>
	<g>
		<rect x="21.35" y="23.09" transform="matrix(0.7071 0.7071 -0.7071 0.7071 24.8339 -11.9486)" width="10.97" height="1.83"/>
		<rect x="21.35" y="23.09" transform="matrix(-0.7071 0.7071 -0.7071 -0.7071 62.7917 21.9967)" width="10.97" height="1.83"/>
	</g>
	<path d="M20.79,17.5l0.01-2.89c0-0.77-0.15-1.47-0.42-2.15c-0.81-1.95-2.72-3.33-4.93-3.39l-0.01,2.89c0.52,0.02,1.02,0.21,1.4,0.5
		c0.65,0.48,1.12,1.27,1.1,2.15l-0.01,2.89c0,0.86-0.44,1.65-1.12,2.14c-0.43,0.34-1,0.54-1.58,0.54l-9.04-0.04
		c-1.45-0.01-2.66-1.23-2.66-2.68l0.01-2.89c0.01-1.45,1.21-2.64,2.68-2.66l2.03,0.01L8.24,9.02L6.2,9.01
		C3.17,9,0.66,11.5,0.64,14.53l-0.01,2.89c-0.01,3.07,2.46,5.57,5.51,5.56l9.04,0.04c2.3,0.01,4.3-1.38,5.14-3.39
		C20.6,18.99,20.78,18.27,20.79,17.5z M30.52,11.98l0.01-2.89c0.01-3.07-2.46-5.57-5.54-5.58l-9.04-0.04
		c-2.3-0.01-4.3,1.38-5.14,3.39c-0.27,0.68-0.43,1.38-0.44,2.14l-0.01,2.89c0,0.77,0.15,1.51,0.42,2.15
		c0.81,1.95,2.72,3.33,4.93,3.39l0.01-2.89c-0.52-0.02-0.99-0.18-1.4-0.5c-0.65-0.48-1.1-1.29-1.1-2.15L13.25,9
		c0-0.9,0.44-1.65,1.12-2.14c0.45-0.36,1-0.54,1.58-0.54l9.04,0.04c1.45,0.01,2.68,1.21,2.66,2.68l-0.01,2.89
		c-0.01,1.49-1.23,2.66-2.68,2.66l-2.03-0.01l-0.01,2.89l2.03,0.01C28.02,17.53,30.51,15.05,30.52,11.98z"/>
</g>
</svg>
